<svg width="35" height="35" viewBox="0 0 35 35" fill="none" xmlns="http://www.w3.org/2000/svg">
<path d="M17.9083 15.8569C16.8148 15.8454 15.7492 15.5107 14.8456 14.8948C13.942 14.2789 13.2408 13.4094 12.8303 12.3959C12.4198 11.3823 12.3183 10.2699 12.5387 9.19883C12.759 8.12773 13.2914 7.14576 14.0687 6.37657C14.846 5.60738 15.8335 5.08535 16.9068 4.87621C17.9802 4.66707 19.0914 4.78016 20.1006 5.20126C21.1098 5.62235 21.9719 6.33262 22.5783 7.24264C23.1847 8.15265 23.5083 9.22173 23.5083 10.3153C23.498 11.792 22.9029 13.2044 21.8532 14.2431C20.8036 15.2818 19.385 15.8621 17.9083 15.8569ZM17.9083 6.71805C17.1995 6.72955 16.5098 6.95025 15.926 7.35244C15.3421 7.75464 14.8901 8.32038 14.6268 8.97862C14.3635 9.63685 14.3005 10.3582 14.4458 11.0521C14.5911 11.746 14.9383 12.3815 15.4436 12.8788C15.9489 13.3761 16.5899 13.7129 17.2861 13.847C17.9822 13.9812 18.7025 13.9066 19.3564 13.6327C20.0103 13.3588 20.5687 12.8978 20.9615 12.3076C21.3542 11.7174 21.5638 11.0242 21.5639 10.3153C21.5536 9.35429 21.1633 8.43646 20.4783 7.76239C19.7933 7.08833 18.8693 6.71286 17.9083 6.71805Z" fill="black"/>
<path d="M17.9084 15.8569C16.8149 15.8454 15.7492 15.5107 14.8456 14.8948C13.942 14.2789 13.2408 13.4094 12.8303 12.3959C12.4198 11.3823 12.3183 10.2699 12.5387 9.19883C12.7591 8.12773 13.2914 7.14576 14.0687 6.37657C14.846 5.60738 15.8335 5.08535 16.9068 4.87621C17.9802 4.66707 19.0914 4.78016 20.1006 5.20126C21.1099 5.62235 21.9719 6.33262 22.5783 7.24264C23.1847 8.15265 23.5083 9.22173 23.5084 10.3153C23.4981 11.792 22.9029 13.2044 21.8533 14.2431C20.8036 15.2818 19.3851 15.8621 17.9084 15.8569ZM17.9084 6.71805C17.1995 6.72955 16.5098 6.95025 15.926 7.35244C15.3421 7.75464 14.8902 8.32038 14.6268 8.97862C14.3635 9.63685 14.3005 10.3582 14.4458 11.0521C14.5912 11.746 14.9383 12.3815 15.4436 12.8788C15.9489 13.3761 16.5899 13.7129 17.2861 13.847C17.9822 13.9812 18.7025 13.9066 19.3564 13.6327C20.0103 13.3588 20.5687 12.8978 20.9615 12.3076C21.3542 11.7174 21.5638 11.0242 21.5639 10.3153C21.5536 9.35429 21.1634 8.43646 20.4784 7.76239C19.7934 7.08833 18.8694 6.71286 17.9084 6.71805ZM21.3014 17.1597C16.9892 16.4093 12.5498 17.0923 8.66252 19.1042C8.38658 19.2574 8.15809 19.4835 8.00205 19.7579C7.84601 20.0322 7.76843 20.3442 7.7778 20.6597V24.1208C7.7778 24.3787 7.88023 24.626 8.06255 24.8083C8.24488 24.9906 8.49217 25.0931 8.75002 25.0931C9.00787 25.0931 9.25516 24.9906 9.43748 24.8083C9.61981 24.626 9.72224 24.3787 9.72224 24.1208V20.7861C13.3269 18.9774 17.4261 18.4035 21.3889 19.1528L21.3014 17.1597Z" fill="#EE232F"/>
<path d="M32.0833 21.3889H25.5694V19.95C25.5694 19.6922 25.467 19.4449 25.2847 19.2625C25.1023 19.0802 24.8551 18.9778 24.5972 18.9778C24.3394 18.9778 24.0921 19.0802 23.9097 19.2625C23.7274 19.4449 23.625 19.6922 23.625 19.95V21.3889H16.5278C16.2699 21.3889 16.0226 21.4913 15.8403 21.6737C15.658 21.856 15.5555 22.1033 15.5555 22.3611V32.0833C15.5555 32.3412 15.658 32.5885 15.8403 32.7708C16.0226 32.9531 16.2699 33.0556 16.5278 33.0556H32.0833C32.3412 33.0556 32.5885 32.9531 32.7708 32.7708C32.9531 32.5885 33.0555 32.3412 33.0555 32.0833V22.3611C33.0555 22.1033 32.9531 21.856 32.7708 21.6737C32.5885 21.4913 32.3412 21.3889 32.0833 21.3889ZM31.1111 31.1111H17.5V23.3333H23.625V23.7319C23.625 23.9898 23.7274 24.2371 23.9097 24.4194C24.0921 24.6017 24.3394 24.7042 24.5972 24.7042C24.8551 24.7042 25.1023 24.6017 25.2847 24.4194C25.467 24.2371 25.5694 23.9898 25.5694 23.7319V23.3333H31.1111V31.1111Z" fill="#EE232F"/>
<path d="M21.2042 26.6583H26.9986V28.0194H21.2042V26.6583ZM10.5389 11.9C7.84725 11.945 5.20227 12.6104 2.80974 13.8444C2.54953 13.9819 2.33157 14.1875 2.17917 14.4392C2.02676 14.6909 1.94563 14.9793 1.94446 15.2736V18.2875C1.94446 18.5453 2.04689 18.7926 2.22922 18.975C2.41154 19.1573 2.65883 19.2597 2.91668 19.2597C3.17453 19.2597 3.42182 19.1573 3.60415 18.975C3.78647 18.7926 3.8889 18.5453 3.8889 18.2875V15.4681C6.17489 14.3302 8.70584 13.7726 11.2583 13.8444C10.9244 13.2351 10.682 12.5799 10.5389 11.9ZM32.1903 13.8347C30.0445 12.7091 27.6862 12.0466 25.2681 11.8903C25.1257 12.569 24.8867 13.2238 24.5583 13.8347C26.8363 13.8892 29.0741 14.447 31.1111 15.4681V18.2875C31.1111 18.5453 31.2136 18.7926 31.3959 18.975C31.5782 19.1573 31.8255 19.2597 32.0833 19.2597C32.3412 19.2597 32.5885 19.1573 32.7708 18.975C32.9531 18.7926 33.0556 18.5453 33.0556 18.2875V15.2736C33.0562 14.9777 32.9759 14.6872 32.8234 14.4336C32.6709 14.18 32.452 13.9729 32.1903 13.8347ZM10.3639 10.3153V9.66389C9.60228 9.56196 8.90931 9.17023 8.42925 8.57023C7.94919 7.97023 7.71902 7.2082 7.78667 6.44278C7.85432 5.67735 8.21457 4.9675 8.79242 4.461C9.37028 3.9545 10.1212 3.69038 10.8889 3.72361C11.6874 3.72217 12.4549 4.03265 13.0278 4.58889C13.5332 4.17198 14.0884 3.8193 14.6806 3.53889C14.0191 2.77828 13.1426 2.23595 12.1668 1.9834C11.1909 1.73085 10.1614 1.77992 9.214 2.12415C8.26658 2.46838 7.4457 3.09161 6.85956 3.91169C6.27341 4.73177 5.94952 5.71022 5.93057 6.71806C5.95097 7.95157 6.43048 9.13317 7.27544 10.0321C8.12041 10.931 9.27012 11.4826 10.5 11.5792C10.4175 11.1627 10.372 10.7398 10.3639 10.3153ZM24.082 1.77917C23.4138 1.77932 22.7525 1.91266 22.1365 2.17141C21.5205 2.43015 20.9623 2.80911 20.4945 3.28611C21.1517 3.52428 21.7732 3.85139 22.3417 4.25833C22.7956 3.94327 23.3264 3.75728 23.8777 3.72022C24.429 3.68315 24.98 3.79639 25.472 4.04787C25.9639 4.29934 26.3784 4.67962 26.6713 5.14816C26.9641 5.61669 27.1243 6.15592 27.1347 6.70833C27.1286 7.27576 26.9619 7.82985 26.6539 8.30645C26.3459 8.78306 25.9093 9.16269 25.3945 9.40139C25.4336 9.70119 25.4531 10.0032 25.4528 10.3056C25.4502 10.6964 25.4177 11.0864 25.3556 11.4722C26.4147 11.1999 27.3541 10.5851 28.0276 9.72354C28.701 8.86194 29.0707 7.80187 29.0792 6.70833C29.0663 5.39321 28.5336 4.13662 27.5972 3.21304C26.6609 2.28946 25.3971 1.77397 24.082 1.77917Z" fill="#EE232F"/>
</svg>
