<svg width="24" height="24" viewBox="0 0 24 24" fill="none" xmlns="http://www.w3.org/2000/svg">
<path d="M15.25 7C15.25 8.79493 13.7949 10.25 12 10.25V11.75C14.6234 11.75 16.75 9.62335 16.75 7H15.25ZM12 3.75C13.7949 3.75 15.25 5.20507 15.25 7H16.75C16.75 4.37665 14.6234 2.25 12 2.25V3.75ZM8.75 7C8.75 5.20507 10.2051 3.75 12 3.75V2.25C9.37665 2.25 7.25 4.37665 7.25 7H8.75ZM12 10.25C10.2051 10.25 8.75 8.79493 8.75 7H7.25C7.25 9.62335 9.37665 11.75 12 11.75V10.25ZM18.25 17C18.25 17.7193 17.733 18.517 16.5776 19.1772C15.4435 19.8253 13.8267 20.25 12 20.25V21.75C14.0393 21.75 15.9225 21.2792 17.3219 20.4796C18.7 19.6921 19.75 18.4899 19.75 17H18.25ZM12 13.75C13.8267 13.75 15.4435 14.1747 16.5776 14.8228C17.733 15.483 18.25 16.2807 18.25 17H19.75C19.75 15.5101 18.7 14.3079 17.3219 13.5204C15.9225 12.7208 14.0393 12.25 12 12.25V13.75ZM5.75 17C5.75 16.2807 6.26701 15.483 7.42236 14.8228C8.55649 14.1747 10.1733 13.75 12 13.75V12.25C9.96067 12.25 8.07752 12.7208 6.67815 13.5204C5.3 14.3079 4.25 15.5101 4.25 17H5.75ZM12 20.25C10.1733 20.25 8.55649 19.8253 7.42236 19.1772C6.26701 18.517 5.75 17.7193 5.75 17H4.25C4.25 18.4899 5.3 19.6921 6.67815 20.4796C8.07752 21.2792 9.96067 21.75 12 21.75V20.25Z" fill="#7B7B7B"/>
</svg>
